<svg width="32" height="32" viewBox="0 0 32 32" fill="none" xmlns="http://www.w3.org/2000/svg">
  <!-- Background circle with emerald green -->
  <circle cx="16" cy="16" r="16" fill="#00875A"/>
  
  <!-- Shopping bag icon in white -->
  <path d="M21.5 11H10.5C10.2239 11 10 11.2239 10 11.5V23C10 23.2761 10.2239 23.5 10.5 23.5H21.5C21.7761 23.5 22 23.2761 22 23V11.5C22 11.2239 21.7761 11 21.5 11Z" stroke="white" stroke-width="1.5" stroke-linecap="round" stroke-linejoin="round" fill="none"/>
  
  <!-- Handle left -->
  <path d="M13 14V12.5C13 11.1193 14.1193 10 15.5 10H16.5C17.8807 10 19 11.1193 19 12.5V14" stroke="white" stroke-width="1.5" stroke-linecap="round" stroke-linejoin="round" fill="none"/>
  
  <!-- Star accent (bottom right) -->
  <path d="M17.5 18L18 19.5L19.5 20L18 20.5L17.5 22L17 20.5L15.5 20L17 19.5L17.5 18Z" fill="#FCD34D" stroke="none"/>
</svg>
